<svg id="Слой_1" data-name="Слой 1" xmlns="http://www.w3.org/2000/svg" xmlns:xlink="http://www.w3.org/1999/xlink" viewBox="0 0 500 499.03"><defs><style>.cls-1{fill:url(#Безымянный_градиент_38);}</style><radialGradient id="Безымянный_градиент_38" cx="250" cy="249.51" r="249.76" gradientUnits="userSpaceOnUse"><stop offset="0" stop-color="gold"/><stop offset="0.48" stop-color="#ffd500"/><stop offset="0.68" stop-color="#fece00"/><stop offset="0.83" stop-color="#fcc101"/><stop offset="0.95" stop-color="#fab002"/><stop offset="1" stop-color="#f9a602"/></radialGradient></defs><rect x="112.33" y="89.22" width="284.44" height="315.56"/><path class="cls-1" d="M250.06,0C388.45,0,500.09,111.61,500,249.83c-.09,138-112,249.33-250.59,249.2C111.45,498.89-.09,387.16,0,249.18.09,111.37,111.86,0,250.06,0ZM321.9,292.92c0-19.12.07-38.23,0-57.35,0-5.17,0-10.46-1-15.51-8-40.27-42.27-64.38-83-58.64-31.12,4.4-58.59,33.31-59.22,64.63-.9,45.08-.43,90.19-.41,135.29a18.93,18.93,0,0,0,1.83,8c3.06,6.31,10.7,9.65,17.39,8.1,7.39-1.72,12.41-8.16,12.42-16.37q.06-63.75,0-127.5c0-23.55,17.74-41.66,40.36-41.42s39.81,18,39.88,41.36c.06,21.34,0,42.68,0,64,0,21.15-.05,42.31,0,63.47,0,10.07,7.26,17.1,16.79,16.66,9-.41,14.86-7.08,14.91-17.39C322,337.83,321.89,315.38,321.9,292.92ZM249.79,104.53a121.78,121.78,0,0,0-52.87,11.41c-7.49,3.45-10.95,11.14-8.86,18.39,2.35,8.12,9.3,12.77,17.85,11.56a34.4,34.4,0,0,0,7.85-2.64,96.11,96.11,0,0,1,110.39,28c14,17.07,21.47,36.59,21.85,58.74.19,10.87,6.91,18.3,16.23,18.2,9.79-.11,16.38-8.24,15.79-19.57-.21-4.07-.4-8.16-.91-12.21C369.2,152.52,314.45,104.45,249.79,104.53ZM122.71,270.75h-.89c0,16.89,0,33.78,0,50.66a37.46,37.46,0,0,0,.64,7.18,15.22,15.22,0,0,0,15.45,12.54c9.42,0,16-7.08,16-17.57.07-29.51-.1-59,.11-88.52.05-7.37-.06-15.11,2.05-22,3.41-11.22,8.27-22,13.12-32.77,3.69-8.13,2-17.12-5.13-21.66a15.59,15.59,0,0,0-21.65,4.4c-11.13,17-18.35,35.73-19.53,56C121.92,236.21,122.71,253.5,122.71,270.75Zm111.5,62.63c0,14.28,0,28.56,0,42.84,0,11.34,5.94,18.19,15.66,18.24s15.89-6.83,15.9-18q0-43.12,0-86.24c0-10.88-6-17.57-15.65-17.62s-15.86,6.6-15.9,17.37C234.16,304.45,234.21,318.92,234.21,333.38Zm144-26.21c0-5.92.14-11.85,0-17.77-.29-10.13-6.84-16.84-16.14-16.79-9.05,0-15.69,6.63-15.9,16.44q-.37,17.76,0,35.54c.2,9.78,6.86,16.47,15.83,16.54,9.29.07,15.89-6.65,16.2-16.74C378.31,318.65,378.17,312.91,378.17,307.17ZM265.79,236c0-10.54-3.21-16.3-10.52-18.75-6.21-2.08-11.85-.86-16.4,3.75-7,7.05-5.39,15.82-3.52,24.07,1.38,6.07,6.32,9.46,12.61,10.15C259.19,256.45,265.79,249.27,265.79,236Z"/></svg>