<svg id="Слой_1" data-name="Слой 1" xmlns="http://www.w3.org/2000/svg" viewBox="0 0 816.8 210.87"><defs><style>.cls-1{fill:#495055;}.cls-2{fill:#d6ab3a;}</style></defs><polygon class="cls-1" points="70.61 140.4 70.61 70.46 140.77 70.46 140.93 70.46 211.24 70.46 211.24 0 140.93 0 140.77 0 70.46 0 0 0 0 70.46 0.15 70.46 0.15 140.93 0.3 140.93 0.3 210.87 70.76 210.87 141.23 210.87 141.23 140.4 70.76 140.4 70.61 140.4"/><rect class="cls-2" x="211.24" y="140.4" width="70.46" height="70.46"/><path class="cls-1" d="M361.53,42.28a29.45,29.45,0,0,1,10.21-6.61,35.31,35.31,0,0,1,12.93-2.3,32.33,32.33,0,0,1,13.8,3A34.88,34.88,0,0,1,410,45.16l14.95-13.8a46.05,46.05,0,0,0-17.75-13.3,59.44,59.44,0,0,0-23.65-4.52,60.21,60.21,0,0,0-21.7,3.8A51.58,51.58,0,0,0,344.5,28.2,49.65,49.65,0,0,0,333,44.73a51.84,51.84,0,0,0-4.1,20.84A51.93,51.93,0,0,0,333,86.42a50.27,50.27,0,0,0,28.74,27.38,60.25,60.25,0,0,0,21.64,3.81,59.11,59.11,0,0,0,23.79-4.6,46.72,46.72,0,0,0,17.75-13.37L410,85.84a34.19,34.19,0,0,1-11.5,9,32.18,32.18,0,0,1-13.8,3,35.31,35.31,0,0,1-12.93-2.3,29.31,29.31,0,0,1-10.21-6.61,30.15,30.15,0,0,1-6.68-10.21,34.54,34.54,0,0,1-2.38-13.08,34.58,34.58,0,0,1,2.38-13.08A30.15,30.15,0,0,1,361.53,42.28Z" transform="translate(-14.77 -13.54)"/><path class="cls-1" d="M470.2,15.26,425.35,115.88h23.87l9-21.56h46.65l8.93,21.56h24.43l-45-100.62Zm-4.67,61.38,16-38.51L497.5,76.64Z" transform="translate(-14.77 -13.54)"/><path class="cls-1" d="M612.8,65a48,48,0,0,0-11.43-5q-6.25-1.87-12.51-3.31t-11.42-2.88A24.86,24.86,0,0,1,569.1,50a7.46,7.46,0,0,1-3.16-6.26,9.54,9.54,0,0,1,1.86-5.82A13.1,13.1,0,0,1,574,33.8a32.69,32.69,0,0,1,11.06-1.58,51.9,51.9,0,0,1,13.8,1.94,61.44,61.44,0,0,1,14.09,6l7.19-17.68a54.05,54.05,0,0,0-16.24-6.69,79.48,79.48,0,0,0-18.69-2.22q-14.24,0-23.65,4.24T547.46,29.13a28.1,28.1,0,0,0-4.67,15.74q0,8.06,3.24,13.23a25.27,25.27,0,0,0,8.41,8.33,52.87,52.87,0,0,0,11.42,5.18q6.25,2,12.51,3.38t11.43,2.87a26.11,26.11,0,0,1,8.34,3.88,7.61,7.61,0,0,1,3.16,6.4,8.58,8.58,0,0,1-2,5.61A13.09,13.09,0,0,1,593,97.56a37.32,37.32,0,0,1-11.14,1.36A56,56,0,0,1,564,96a57.39,57.39,0,0,1-15.31-7.54L540.78,106q6.75,5.17,17.82,8.41a82,82,0,0,0,23.15,3.24q14.37,0,23.79-4.31t14.16-11.36a27.2,27.2,0,0,0,4.74-15.52q0-7.9-3.23-13.09A25.46,25.46,0,0,0,612.8,65Z" transform="translate(-14.77 -13.54)"/><path class="cls-1" d="M707.24,19.64q-9.78-4.38-23.29-4.38H640.4V115.88h23.28V88.14H684q13.51,0,23.29-4.38a34.11,34.11,0,0,0,15.09-12.58,34.89,34.89,0,0,0,5.32-19.41q0-11.35-5.32-19.55A34.11,34.11,0,0,0,707.24,19.64Zm-8.48,44.92q-5.32,4.6-16.1,4.6h-19V34.23h19q10.77,0,16.1,4.6t5.32,12.94Q704.08,60,698.76,64.56Z" transform="translate(-14.77 -13.54)"/><polygon class="cls-1" points="816.8 1.72 793.95 1.72 767.01 46.39 740.19 1.72 715.46 1.72 754.42 66.48 754.42 102.35 777.71 102.35 777.71 66.72 816.8 1.72"/><polygon class="cls-2" points="314.12 131.83 344.22 131.83 344.22 209.94 350.31 209.94 350.31 131.83 380.41 131.83 380.41 126.34 314.12 126.34 314.12 131.83"/><polygon class="cls-2" points="401.55 170.17 446.1 170.17 446.1 164.8 401.55 164.8 401.55 131.83 451.36 131.83 451.36 126.34 395.46 126.34 395.46 209.94 453.15 209.94 453.15 204.45 401.55 204.45 401.55 170.17"/><polygon class="cls-2" points="537.35 198.91 480.5 126.34 475.36 126.34 475.36 209.94 481.45 209.94 481.45 137.36 538.42 209.94 543.44 209.94 543.44 126.34 537.35 126.34 537.35 198.91"/><path class="cls-2" d="M643.73,145.25q-10-5.38-23.29-5.38H587.36v83.61h33.08q13.26,0,23.29-5.38a39.05,39.05,0,0,0,15.59-14.81,44.87,44.87,0,0,0,0-43.23A39.05,39.05,0,0,0,643.73,145.25ZM654,200.49a33.61,33.61,0,0,1-13.49,12.84Q631.78,218,620,218H593.45V145.37H620q11.84,0,20.55,4.65A33.61,33.61,0,0,1,654,162.86a39.42,39.42,0,0,1,0,37.63Z" transform="translate(-14.77 -13.54)"/><polygon class="cls-2" points="677.33 170.17 721.88 170.17 721.88 164.8 677.33 164.8 677.33 131.83 727.13 131.83 727.13 126.34 671.24 126.34 671.24 209.94 728.92 209.94 728.92 204.45 677.33 204.45 677.33 170.17"/><path class="cls-2" d="M830.89,223.48l-21-29.25a33.38,33.38,0,0,0,4-1.51,26.28,26.28,0,0,0,11.58-9.67,27,27,0,0,0,4.06-15,27.41,27.41,0,0,0-4.06-15.23,25.91,25.91,0,0,0-11.58-9.61,44.21,44.21,0,0,0-18-3.35h-30v83.61H772V196.13h23.88a53.41,53.41,0,0,0,8-.62l20,28ZM772,190.75V145.37h23.88q13.5,0,20.49,5.91t7,16.78q0,10.75-7,16.72t-20.49,6Z" transform="translate(-14.77 -13.54)"/></svg>